<svg xmlns="http://www.w3.org/2000/svg" viewBox="0 0 1200 800" preserveAspectRatio="xMidYMid slice">
<defs>
<linearGradient id="bg" x1="0" y1="0" x2="1" y2="1"><stop offset="0" stop-color="#FFE3E7"/><stop offset="1" stop-color="#FFF6F1"/></linearGradient>
<radialGradient id="glow" cx=".5" cy=".5" r=".5"><stop offset="0" stop-color="#FFE9A8" stop-opacity=".9"/><stop offset="1" stop-color="#FFE9A8" stop-opacity="0"/></radialGradient>
<linearGradient id="sky" x1="0" y1="0" x2="0" y2="1"><stop offset="0" stop-color="#9FD3EA"/><stop offset="1" stop-color="#DDF1F8"/></linearGradient>
<linearGradient id="floor" x1="0" y1="0" x2="0" y2="1"><stop offset="0" stop-color="#E2C3A6"/><stop offset="1" stop-color="#CFA884"/></linearGradient>
</defs>
<rect width="1200" height="800" fill="url(#bg)"/><circle cx="600" cy="360" r="330" fill="#F54C61" opacity=".1"/><path d="M0 800 Q600 560 1200 800Z" fill="#013F58" opacity=".08"/>
<path d="M85 800 V560 Q85 460 180 460 Q275 460 275 560 V800Z" fill="#F54C61"/>
<circle cx="180" cy="380" r="68" fill="#8D5524"/>
<path d="M110 370 Q120 300 180 308 Q250 300 250 366 Q210 330 110 370Z" fill="#2B1B12"/>
<path d="M158 408 Q180 426 202 408" stroke="#2B1B12" stroke-width="6" fill="none" stroke-linecap="round"/>
<path d="M295 800 V600 Q295 500 390 500 Q485 500 485 600 V800Z" fill="#013F58"/>
<circle cx="390" cy="420" r="68" fill="#C68642"/>
<path d="M320 410 Q330 340 390 348 Q460 340 460 406 Q420 370 320 410Z" fill="#2B1B12"/>
<path d="M368 448 Q390 466 412 448" stroke="#2B1B12" stroke-width="6" fill="none" stroke-linecap="round"/>
<path d="M505 800 V560 Q505 460 600 460 Q695 460 695 560 V800Z" fill="#F7B267"/>
<circle cx="600" cy="380" r="68" fill="#F1C27D"/>
<path d="M530 370 Q540 300 600 308 Q670 300 670 366 Q630 330 530 370Z" fill="#2B1B12"/>
<path d="M578 408 Q600 426 622 408" stroke="#2B1B12" stroke-width="6" fill="none" stroke-linecap="round"/>
<path d="M715 800 V600 Q715 500 810 500 Q905 500 905 600 V800Z" fill="#0B5575"/>
<circle cx="810" cy="420" r="68" fill="#6B3E26"/>
<path d="M740 410 Q750 340 810 348 Q880 340 880 406 Q840 370 740 410Z" fill="#2B1B12"/>
<path d="M788 448 Q810 466 832 448" stroke="#2B1B12" stroke-width="6" fill="none" stroke-linecap="round"/>
<path d="M925 800 V560 Q925 460 1020 460 Q1115 460 1115 560 V800Z" fill="#FF8A98"/>
<circle cx="1020" cy="380" r="68" fill="#E0AC69"/>
<path d="M950 370 Q960 300 1020 308 Q1090 300 1090 366 Q1050 330 950 370Z" fill="#2B1B12"/>
<path d="M998 408 Q1020 426 1042 408" stroke="#2B1B12" stroke-width="6" fill="none" stroke-linecap="round"/></svg>