<svg xmlns="http://www.w3.org/2000/svg" viewBox="0 0 1200 800" preserveAspectRatio="xMidYMid slice">
<defs>
<linearGradient id="bg" x1="0" y1="0" x2="1" y2="1"><stop offset="0" stop-color="#FFE3E7"/><stop offset="1" stop-color="#FFF6F1"/></linearGradient>
<radialGradient id="glow" cx=".5" cy=".5" r=".5"><stop offset="0" stop-color="#FFE9A8" stop-opacity=".9"/><stop offset="1" stop-color="#FFE9A8" stop-opacity="0"/></radialGradient>
<linearGradient id="sky" x1="0" y1="0" x2="0" y2="1"><stop offset="0" stop-color="#9FD3EA"/><stop offset="1" stop-color="#DDF1F8"/></linearGradient>
<linearGradient id="floor" x1="0" y1="0" x2="0" y2="1"><stop offset="0" stop-color="#E2C3A6"/><stop offset="1" stop-color="#CFA884"/></linearGradient>
</defs>
<rect width="1200" height="800" fill="url(#bg)"/><rect width="1200" height="800" fill="url(#sky)"/>
<circle cx="980" cy="160" r="70" fill="#FFF3C4"/>
<ellipse cx="200" cy="140" rx="110" ry="36" fill="#fff" opacity=".85"/><ellipse cx="760" cy="110" rx="90" ry="28" fill="#fff" opacity=".85"/>
<rect y="660" width="1200" height="140" fill="#7CC4A4"/><rect y="680" width="1200" height="120" fill="#9E9A94"/>

<path d="M80 300 L255 180 L430 300Z" fill="#013F58"/>
<rect x="90" y="300" width="330" height="380" fill="#B5563F"/>
<rect x="90" y="310" width="330" height="2" fill="#000" opacity=".08"/><rect x="90" y="341" width="330" height="2" fill="#000" opacity=".08"/><rect x="90" y="372" width="330" height="2" fill="#000" opacity=".08"/><rect x="90" y="403" width="330" height="2" fill="#000" opacity=".08"/><rect x="90" y="434" width="330" height="2" fill="#000" opacity=".08"/><rect x="90" y="465" width="330" height="2" fill="#000" opacity=".08"/><rect x="90" y="496" width="330" height="2" fill="#000" opacity=".08"/><rect x="90" y="527" width="330" height="2" fill="#000" opacity=".08"/><rect x="90" y="558" width="330" height="2" fill="#000" opacity=".08"/><rect x="90" y="589" width="330" height="2" fill="#000" opacity=".08"/><rect x="90" y="620" width="330" height="2" fill="#000" opacity=".08"/><rect x="90" y="651" width="330" height="2" fill="#000" opacity=".08"/>
<rect x="130" y="340" width="100" height="110" rx="4" fill="#fff"/><rect x="140" y="350" width="80" height="90" fill="url(#sky)"/>
<rect x="280" y="340" width="100" height="110" rx="4" fill="#fff"/><rect x="290" y="350" width="80" height="90" fill="url(#sky)"/>
<rect x="130" y="500" width="100" height="110" rx="4" fill="#fff"/><rect x="140" y="510" width="80" height="90" fill="url(#sky)"/>
<path d="M280 680 V540 Q330 490 380 540 V680Z" fill="#0B5575"/><circle cx="360" cy="610" r="6" fill="#FFD9A0"/>
<rect x="340" y="220" width="36" height="70" fill="#B5563F"/>
<path d="M430 300 L605 180 L780 300Z" fill="#013F58"/>
<rect x="440" y="300" width="330" height="380" fill="#A34A37"/>
<rect x="440" y="310" width="330" height="2" fill="#000" opacity=".08"/><rect x="440" y="341" width="330" height="2" fill="#000" opacity=".08"/><rect x="440" y="372" width="330" height="2" fill="#000" opacity=".08"/><rect x="440" y="403" width="330" height="2" fill="#000" opacity=".08"/><rect x="440" y="434" width="330" height="2" fill="#000" opacity=".08"/><rect x="440" y="465" width="330" height="2" fill="#000" opacity=".08"/><rect x="440" y="496" width="330" height="2" fill="#000" opacity=".08"/><rect x="440" y="527" width="330" height="2" fill="#000" opacity=".08"/><rect x="440" y="558" width="330" height="2" fill="#000" opacity=".08"/><rect x="440" y="589" width="330" height="2" fill="#000" opacity=".08"/><rect x="440" y="620" width="330" height="2" fill="#000" opacity=".08"/><rect x="440" y="651" width="330" height="2" fill="#000" opacity=".08"/>
<rect x="480" y="340" width="100" height="110" rx="4" fill="#fff"/><rect x="490" y="350" width="80" height="90" fill="url(#sky)"/>
<rect x="630" y="340" width="100" height="110" rx="4" fill="#fff"/><rect x="640" y="350" width="80" height="90" fill="url(#sky)"/>
<rect x="480" y="500" width="100" height="110" rx="4" fill="#fff"/><rect x="490" y="510" width="80" height="90" fill="url(#sky)"/>
<path d="M630 680 V540 Q680 490 730 540 V680Z" fill="#F54C61"/><circle cx="710" cy="610" r="6" fill="#FFD9A0"/>
<rect x="690" y="220" width="36" height="70" fill="#A34A37"/>
<path d="M780 300 L955 180 L1130 300Z" fill="#013F58"/>
<rect x="790" y="300" width="330" height="380" fill="#B96149"/>
<rect x="790" y="310" width="330" height="2" fill="#000" opacity=".08"/><rect x="790" y="341" width="330" height="2" fill="#000" opacity=".08"/><rect x="790" y="372" width="330" height="2" fill="#000" opacity=".08"/><rect x="790" y="403" width="330" height="2" fill="#000" opacity=".08"/><rect x="790" y="434" width="330" height="2" fill="#000" opacity=".08"/><rect x="790" y="465" width="330" height="2" fill="#000" opacity=".08"/><rect x="790" y="496" width="330" height="2" fill="#000" opacity=".08"/><rect x="790" y="527" width="330" height="2" fill="#000" opacity=".08"/><rect x="790" y="558" width="330" height="2" fill="#000" opacity=".08"/><rect x="790" y="589" width="330" height="2" fill="#000" opacity=".08"/><rect x="790" y="620" width="330" height="2" fill="#000" opacity=".08"/><rect x="790" y="651" width="330" height="2" fill="#000" opacity=".08"/>
<rect x="830" y="340" width="100" height="110" rx="4" fill="#fff"/><rect x="840" y="350" width="80" height="90" fill="url(#sky)"/>
<rect x="980" y="340" width="100" height="110" rx="4" fill="#fff"/><rect x="990" y="350" width="80" height="90" fill="url(#sky)"/>
<rect x="830" y="500" width="100" height="110" rx="4" fill="#fff"/><rect x="840" y="510" width="80" height="90" fill="url(#sky)"/>
<path d="M980 680 V540 Q1030 490 1080 540 V680Z" fill="#0B5575"/><circle cx="1060" cy="610" r="6" fill="#FFD9A0"/>
<rect x="1040" y="220" width="36" height="70" fill="#B96149"/>
<circle cx="1120" cy="560" r="90" fill="#2E8B6E"/><rect x="1110" y="600" width="20" height="80" fill="#6B4A2E"/></svg>